<svg width="1600" height="1000" viewBox="0 0 1600 1000" fill="none" xmlns="http://www.w3.org/2000/svg">
  <rect width="1600" height="1000" rx="48" fill="url(#bg)"/>
  <circle cx="1284" cy="190" r="182" fill="url(#glow1)"/>
  <circle cx="252" cy="820" r="222" fill="url(#glow2)"/>
  <path d="M214 724C390 596 566 530 756 520C920 512 1082 548 1326 676" stroke="rgba(255,255,255,0.16)" stroke-width="4" stroke-linecap="round"/>

  <g>
    <rect x="130" y="146" width="504" height="624" rx="40" fill="rgba(255,255,255,0.08)" stroke="rgba(255,255,255,0.18)" stroke-width="2"/>
    <rect x="174" y="192" width="416" height="536" rx="32" fill="rgba(18,20,26,0.74)"/>
    <rect x="214" y="232" width="336" height="176" rx="28" fill="url(#meme1)"/>
    <rect x="234" y="252" width="196" height="34" rx="17" fill="rgba(255,255,255,0.92)"/>
    <rect x="234" y="352" width="248" height="30" rx="15" fill="rgba(15,18,24,0.84)"/>
    <rect x="214" y="440" width="158" height="120" rx="24" fill="rgba(255,255,255,0.12)"/>
    <rect x="392" y="440" width="158" height="120" rx="24" fill="rgba(255,197,108,0.9)"/>
    <rect x="214" y="586" width="336" height="102" rx="24" fill="rgba(255,255,255,0.08)"/>
  </g>

  <g>
    <rect x="760" y="168" width="626" height="614" rx="42" fill="rgba(255,255,255,0.06)" stroke="rgba(255,255,255,0.16)" stroke-width="2"/>
    <rect x="812" y="220" width="522" height="510" rx="34" fill="rgba(22,24,31,0.86)"/>
    <rect x="852" y="260" width="442" height="200" rx="28" fill="url(#meme2)"/>
    <rect x="884" y="292" width="246" height="32" rx="16" fill="rgba(255,255,255,0.94)"/>
    <rect x="884" y="394" width="288" height="30" rx="15" fill="rgba(18,20,26,0.86)"/>
    <rect x="852" y="492" width="140" height="140" rx="28" fill="rgba(255,255,255,0.08)"/>
    <circle cx="922" cy="562" r="42" fill="url(#sticker1)"/>
    <rect x="1012" y="492" width="282" height="140" rx="28" fill="rgba(255,255,255,0.1)"/>
    <path d="M1046 566C1078 514 1132 492 1180 492C1238 492 1286 536 1286 594C1286 640 1256 680 1208 692C1170 702 1132 692 1102 670L1060 680L1072 634C1054 614 1046 592 1046 566Z" fill="rgba(255,197,108,0.96)"/>
    <circle cx="1114" cy="592" r="12" fill="#1B1E27"/>
    <circle cx="1166" cy="592" r="12" fill="#1B1E27"/>
    <circle cx="1218" cy="592" r="12" fill="#1B1E27"/>
  </g>

  <text x="140" y="878" fill="#FFF8EE" font-family="Arial, Helvetica, sans-serif" font-size="62" font-weight="700" letter-spacing="-1.6">
    Emotify
  </text>
  <text x="140" y="938" fill="rgba(255,248,238,0.82)" font-family="Arial, Helvetica, sans-serif" font-size="28" font-weight="600" letter-spacing="2">
    FAST MEMES. CLEAN TOOLS. EXPRESSIVE CONTENT WITHOUT THE CLUTTER.
  </text>

  <defs>
    <linearGradient id="bg" x1="126" y1="88" x2="1408" y2="908" gradientUnits="userSpaceOnUse">
      <stop stop-color="#2B3244"/>
      <stop offset="0.48" stop-color="#1D202B"/>
      <stop offset="1" stop-color="#13151C"/>
    </linearGradient>
    <radialGradient id="glow1" cx="0" cy="0" r="1" gradientUnits="userSpaceOnUse" gradientTransform="translate(1284 190) rotate(90) scale(182)">
      <stop stop-color="#FFB44D" stop-opacity="0.52"/>
      <stop offset="1" stop-color="#FFB44D" stop-opacity="0"/>
    </radialGradient>
    <radialGradient id="glow2" cx="0" cy="0" r="1" gradientUnits="userSpaceOnUse" gradientTransform="translate(252 820) rotate(90) scale(222)">
      <stop stop-color="#FF7483" stop-opacity="0.26"/>
      <stop offset="1" stop-color="#FF7483" stop-opacity="0"/>
    </radialGradient>
    <linearGradient id="meme1" x1="214" y1="232" x2="550" y2="408" gradientUnits="userSpaceOnUse">
      <stop stop-color="#FFC56C"/>
      <stop offset="1" stop-color="#FF7483"/>
    </linearGradient>
    <linearGradient id="meme2" x1="852" y1="260" x2="1294" y2="460" gradientUnits="userSpaceOnUse">
      <stop stop-color="#FFD58E"/>
      <stop offset="0.55" stop-color="#FF9D76"/>
      <stop offset="1" stop-color="#FF718E"/>
    </linearGradient>
    <linearGradient id="sticker1" x1="880" y1="520" x2="964" y2="604" gradientUnits="userSpaceOnUse">
      <stop stop-color="#FFD98F"/>
      <stop offset="1" stop-color="#FFA75E"/>
    </linearGradient>
  </defs>
</svg>
