<svg width="1200" height="980" viewBox="0 0 1200 980" fill="none" xmlns="http://www.w3.org/2000/svg">
  <rect width="1200" height="980" rx="48" fill="url(#bg)"/>
  <circle cx="970" cy="164" r="120" fill="url(#glow1)" fill-opacity="0.85"/>
  <circle cx="214" cy="230" r="150" fill="url(#glow2)" fill-opacity="0.75"/>
  <circle cx="1060" cy="742" r="150" fill="url(#glow3)" fill-opacity="0.8"/>

  <g opacity="0.75">
    <path d="M94 720C236 586 432 516 628 548" stroke="#CFA268" stroke-width="2.5" stroke-linecap="round"/>
    <path d="M214 798C390 656 614 626 834 682" stroke="#E1BC83" stroke-width="2.5" stroke-linecap="round"/>
    <path d="M698 214C848 230 974 300 1056 408" stroke="#8DB2A3" stroke-width="2.5" stroke-linecap="round"/>
  </g>

  <g filter="url(#shadow)">
    <rect x="132" y="110" width="412" height="610" rx="38" fill="url(#panel1)"/>
    <rect x="158" y="146" width="360" height="78" rx="24" fill="white" fill-opacity="0.64"/>
    <rect x="180" y="168" width="88" height="34" rx="17" fill="#1B433C"/>
    <rect x="180" y="274" width="314" height="220" rx="30" fill="white" fill-opacity="0.7"/>
    <rect x="188" y="282" width="298" height="204" rx="24" fill="url(#photo1)"/>
    <rect x="180" y="526" width="130" height="130" rx="28" fill="white" fill-opacity="0.72"/>
    <rect x="330" y="526" width="164" height="58" rx="18" fill="white" fill-opacity="0.56"/>
    <rect x="330" y="598" width="132" height="18" rx="9" fill="white" fill-opacity="0.48"/>
    <rect x="330" y="626" width="104" height="18" rx="9" fill="white" fill-opacity="0.36"/>
  </g>

  <g filter="url(#shadow)">
    <rect x="410" y="178" width="598" height="352" rx="42" fill="url(#panel2)"/>
    <rect x="454" y="224" width="208" height="34" rx="17" fill="white" fill-opacity="0.56"/>
    <rect x="454" y="288" width="262" height="148" rx="28" fill="white" fill-opacity="0.7"/>
    <rect x="742" y="224" width="218" height="258" rx="32" fill="url(#panel3)"/>
    <rect x="770" y="252" width="162" height="162" rx="30" fill="#FFF7EE"/>
    <path d="M812 303C831 276 859 262 891 262C930 262 962 293 962 332C962 398 896 421 842 456C798 422 760 389 760 344C760 307 788 278 824 278C840 278 856 284 868 294L812 303Z" fill="url(#petal)"/>
    <circle cx="584" cy="360" r="88" fill="url(#photo2)"/>
    <rect x="454" y="456" width="210" height="20" rx="10" fill="white" fill-opacity="0.42"/>
    <rect x="454" y="490" width="164" height="16" rx="8" fill="white" fill-opacity="0.3"/>
  </g>

  <g filter="url(#shadow)">
    <rect x="610" y="566" width="464" height="250" rx="40" fill="url(#panel4)"/>
    <rect x="648" y="606" width="160" height="154" rx="28" fill="#183F38"/>
    <path d="M722 636C697 636 676 656 676 682V708C676 734 697 754 722 754C747 754 768 734 768 708V682C768 656 747 636 722 636Z" fill="#F6E4C7"/>
    <path d="M716 676C705 676 696 685 696 696V708C696 719 705 728 716 728C727 728 736 719 736 708V696C736 685 727 676 716 676Z" fill="#D97757"/>
    <rect x="842" y="620" width="192" height="34" rx="17" fill="white" fill-opacity="0.6"/>
    <rect x="842" y="672" width="150" height="18" rx="9" fill="white" fill-opacity="0.42"/>
    <rect x="842" y="704" width="174" height="18" rx="9" fill="white" fill-opacity="0.32"/>
    <rect x="842" y="744" width="124" height="40" rx="20" fill="#F1C27D"/>
  </g>

  <g filter="url(#shadow)">
    <rect x="126" y="748" width="404" height="124" rx="32" fill="url(#panel5)"/>
    <rect x="154" y="780" width="118" height="62" rx="20" fill="#FFF9F1" fill-opacity="0.88"/>
    <rect x="290" y="780" width="212" height="18" rx="9" fill="white" fill-opacity="0.56"/>
    <rect x="290" y="812" width="154" height="16" rx="8" fill="white" fill-opacity="0.36"/>
  </g>

  <defs>
    <linearGradient id="bg" x1="112" y1="40" x2="1018" y2="916" gradientUnits="userSpaceOnUse">
      <stop stop-color="#FFF8F0"/>
      <stop offset="1" stop-color="#F2E4D0"/>
    </linearGradient>
    <radialGradient id="glow1" cx="0" cy="0" r="1" gradientUnits="userSpaceOnUse" gradientTransform="translate(970 164) rotate(90) scale(120)">
      <stop stop-color="#FFEDC8"/>
      <stop offset="1" stop-color="#FFEDC8" stop-opacity="0"/>
    </radialGradient>
    <radialGradient id="glow2" cx="0" cy="0" r="1" gradientUnits="userSpaceOnUse" gradientTransform="translate(214 230) rotate(90) scale(150)">
      <stop stop-color="#F7C9BC"/>
      <stop offset="1" stop-color="#F7C9BC" stop-opacity="0"/>
    </radialGradient>
    <radialGradient id="glow3" cx="0" cy="0" r="1" gradientUnits="userSpaceOnUse" gradientTransform="translate(1060 742) rotate(90) scale(150)">
      <stop stop-color="#C7DED5"/>
      <stop offset="1" stop-color="#C7DED5" stop-opacity="0"/>
    </radialGradient>
    <linearGradient id="panel1" x1="132" y1="110" x2="544" y2="720" gradientUnits="userSpaceOnUse">
      <stop stop-color="#E3C58E"/>
      <stop offset="1" stop-color="#DFA879"/>
    </linearGradient>
    <linearGradient id="panel2" x1="410" y1="178" x2="1008" y2="530" gradientUnits="userSpaceOnUse">
      <stop stop-color="#F3D4CA"/>
      <stop offset="1" stop-color="#E6A997"/>
    </linearGradient>
    <linearGradient id="panel3" x1="742" y1="224" x2="960" y2="482" gradientUnits="userSpaceOnUse">
      <stop stop-color="#FFFFFF"/>
      <stop offset="1" stop-color="#F8E9D7"/>
    </linearGradient>
    <linearGradient id="panel4" x1="610" y1="566" x2="1074" y2="816" gradientUnits="userSpaceOnUse">
      <stop stop-color="#A8C8BC"/>
      <stop offset="1" stop-color="#688F81"/>
    </linearGradient>
    <linearGradient id="panel5" x1="126" y1="748" x2="530" y2="872" gradientUnits="userSpaceOnUse">
      <stop stop-color="#203C39"/>
      <stop offset="1" stop-color="#315954"/>
    </linearGradient>
    <linearGradient id="photo1" x1="194" y1="292" x2="474" y2="480" gradientUnits="userSpaceOnUse">
      <stop stop-color="#F7F0E4"/>
      <stop offset="0.54" stop-color="#DFA97A"/>
      <stop offset="1" stop-color="#A96542"/>
    </linearGradient>
    <linearGradient id="photo2" x1="514" y1="294" x2="654" y2="438" gradientUnits="userSpaceOnUse">
      <stop stop-color="#FAF4EB"/>
      <stop offset="0.55" stop-color="#E2BA84"/>
      <stop offset="1" stop-color="#D87A57"/>
    </linearGradient>
    <linearGradient id="petal" x1="760" y1="262" x2="962" y2="456" gradientUnits="userSpaceOnUse">
      <stop stop-color="#1D4840"/>
      <stop offset="1" stop-color="#46796E"/>
    </linearGradient>
    <filter id="shadow" x="88" y="76" width="1024" height="830" filterUnits="userSpaceOnUse" color-interpolation-filters="sRGB">
      <feFlood flood-opacity="0" result="BackgroundImageFix"/>
      <feColorMatrix in="SourceAlpha" type="matrix" values="0 0 0 0 0 0 0 0 0 0 0 0 0 0 0 0 0 0 127 0" result="hardAlpha"/>
      <feOffset dy="18"/>
      <feGaussianBlur stdDeviation="22"/>
      <feColorMatrix type="matrix" values="0 0 0 0 0.337255 0 0 0 0 0.215686 0 0 0 0 0.0784314 0 0 0 0.12 0"/>
      <feBlend mode="normal" in2="BackgroundImageFix" result="effect1_dropShadow_1_2"/>
      <feBlend mode="normal" in="SourceGraphic" in2="effect1_dropShadow_1_2" result="shape"/>
    </filter>
  </defs>
</svg>
